<?xml version="1.0" encoding="utf-8"?>
<!-- Generator: Adobe Illustrator 27.3.1, SVG Export Plug-In . SVG Version: 6.00 Build 0)  -->
<svg version="1.1" id="Layer_1" xmlns="http://www.w3.org/2000/svg" xmlns:xlink="http://www.w3.org/1999/xlink" x="0px" y="0px"
	 viewBox="0 0 500 500" style="enable-background:new 0 0 500 500;" xml:space="preserve">
<style type="text/css">
	.st0{fill:url(#SVGID_1_);}
	.st1{fill:url(#SVGID_00000094579839232070058940000000314894566560998041_);}
</style>
<g>
	<g>
		<linearGradient id="SVGID_1_" gradientUnits="userSpaceOnUse" x1="196.9383" y1="315.8773" x2="486.6543" y2="315.8773">
			<stop  offset="0" style="stop-color:#45B65B"/>
			<stop  offset="4.599750e-03" style="stop-color:#45B65B"/>
			<stop  offset="0.6307" style="stop-color:#54BA6F"/>
			<stop  offset="1" style="stop-color:#5EBD7D"/>
		</linearGradient>
		<path class="st0" d="M485.97,296.55c-1.61-7.44-2.5-15.12-4.91-22.29c-9.89-29.32-29.38-50.99-55.68-66.53
			c-34.44-20.35-71.8-26.56-111.06-20.13c-35.22,5.77-65.58,21.11-89.54,48.2c-32.48,36.72-37.23,88.3-10.61,129.42
			c26.46,40.87,66.2,59.59,113.32,64.59c22.34,2.37,44.2-1.21,65.8-6.79c1.96-0.51,4.55-0.48,6.3,0.39
			c10.68,5.32,21.2,10.94,31.77,16.48c3.98,2.08,7.93,4.21,12.59,6.69c-0.42-1.49-0.58-2.17-0.8-2.83
			c-3.79-11.83-7.51-23.69-11.44-35.47c-0.78-2.34-0.7-3.74,1.5-5.19c2.98-1.95,5.73-4.26,8.5-6.52
			c19.67-16.06,34.17-35.7,41.05-60.41c1.77-6.35,2.63-12.96,3.9-19.44c0-5.92,0-11.83,0-17.75
			C486.42,298.16,486.15,297.37,485.97,296.55z M298.06,287.65c-10.72,0-19.41-8.69-19.41-19.41c0-10.72,8.69-19.41,19.41-19.41
			c10.72,0,19.41,8.69,19.41,19.41C317.46,278.96,308.78,287.65,298.06,287.65z M392.63,287.65c-10.72,0-19.41-8.69-19.41-19.41
			c0-10.72,8.69-19.41,19.41-19.41c10.72,0,19.41,8.69,19.41,19.41C412.04,278.96,403.35,287.65,392.63,287.65z"/>
		
			<linearGradient id="SVGID_00000069388980418876553780000011782711043170722737_" gradientUnits="userSpaceOnUse" x1="13.3457" y1="210.3818" x2="356.4168" y2="210.3818">
			<stop  offset="0" style="stop-color:#45B65B"/>
			<stop  offset="4.599750e-03" style="stop-color:#45B65B"/>
			<stop  offset="0.6307" style="stop-color:#54BA6F"/>
			<stop  offset="1" style="stop-color:#5EBD7D"/>
		</linearGradient>
		<path style="fill:url(#SVGID_00000069388980418876553780000011782711043170722737_);" d="M190.64,282.5
			c7.29-32.21,26.04-56.79,52.42-75.71c31.59-22.66,67.42-31.47,105.92-30.67c2.44,0.05,4.88,0.01,7.35,0.01
			c0.03-0.52,0.14-0.91,0.05-1.24c-0.81-3.22-1.52-6.47-2.52-9.63c-13.2-41.75-40.95-71.27-79.22-90.66
			c-46.91-23.77-96.24-27.1-146.49-12.12C88.61,74.25,56.15,96.5,33.72,131.73c-16.94,26.62-23.68,55.8-18.86,87.21
			c4.67,30.45,19.03,55.96,41.03,77.17c7.86,7.57,16.57,14.26,25.12,21.55c-5.32,15.9-10.82,32.32-16.64,49.7
			c2.66-1.37,4.19-2.13,5.7-2.94c16.08-8.56,32.18-17.07,48.19-25.76c2.8-1.52,5.18-1.81,8.27-0.85
			c19.06,5.92,38.64,8.69,58.56,9.12c2.89,0.06,5.78,0.01,9.13,0.01c-0.64-2.25-1.05-3.76-1.5-5.26
			C186.99,322.12,186.15,302.34,190.64,282.5z M245.35,124.46c13.45,0,24.35,10.9,24.35,24.35c0,13.45-10.9,24.35-24.35,24.35
			c-13.45,0-24.35-10.9-24.35-24.35C221,135.36,231.9,124.46,245.35,124.46z M126.76,173.16c-13.45,0-24.35-10.9-24.35-24.35
			c0-13.45,10.9-24.35,24.35-24.35c13.45,0,24.35,10.9,24.35,24.35C151.11,162.26,140.21,173.16,126.76,173.16z"/>
	</g>
</g>
</svg>
