<?xml version="1.0" encoding="utf-8"?>
<!-- Generator: Adobe Illustrator 27.3.1, SVG Export Plug-In . SVG Version: 6.00 Build 0)  -->
<svg version="1.1" id="Layer_1" xmlns="http://www.w3.org/2000/svg" xmlns:xlink="http://www.w3.org/1999/xlink" x="0px" y="0px"
	 viewBox="0 0 845 224" style="enable-background:new 0 0 845 224;" xml:space="preserve">
<style type="text/css">
	.st0{fill:url(#SVGID_1_);}
	.st1{fill:url(#SVGID_00000073704656131665525220000015509266124411972504_);}
</style>
<g>
	<g>
		<linearGradient id="SVGID_1_" gradientUnits="userSpaceOnUse" x1="109.5075" y1="142.6809" x2="246.8086" y2="142.6809">
			<stop  offset="0" style="stop-color:#45B65B"/>
			<stop  offset="4.599750e-03" style="stop-color:#45B65B"/>
			<stop  offset="0.6307" style="stop-color:#54BA6F"/>
			<stop  offset="1" style="stop-color:#5EBD7D"/>
		</linearGradient>
		<path class="st0" d="M246.48,133.52c-0.76-3.53-1.18-7.17-2.33-10.56c-4.69-13.9-13.93-24.17-26.39-31.53
			c-16.32-9.65-34.03-12.59-52.63-9.54c-16.69,2.74-31.08,10-42.43,22.84c-15.39,17.4-17.64,41.85-5.03,61.33
			c12.54,19.37,31.37,28.24,53.7,30.61c10.59,1.12,20.95-0.57,31.18-3.22c0.93-0.24,2.15-0.23,2.98,0.18
			c5.06,2.52,10.05,5.19,15.06,7.81c1.88,0.99,3.76,2,5.97,3.17c-0.2-0.71-0.28-1.03-0.38-1.34c-1.8-5.61-3.56-11.22-5.42-16.81
			c-0.37-1.11-0.33-1.77,0.71-2.46c1.41-0.93,2.72-2.02,4.03-3.09c9.32-7.61,16.2-16.92,19.45-28.63c0.84-3.01,1.24-6.14,1.85-9.21
			c0-2.8,0-5.61,0-8.41C246.7,134.29,246.57,133.91,246.48,133.52z M157.43,129.3c-5.08,0-9.2-4.12-9.2-9.2c0-5.08,4.12-9.2,9.2-9.2
			c5.08,0,9.2,4.12,9.2,9.2C166.63,125.19,162.51,129.3,157.43,129.3z M202.25,129.3c-5.08,0-9.2-4.12-9.2-9.2
			c0-5.08,4.12-9.2,9.2-9.2c5.08,0,9.2,4.12,9.2,9.2C211.45,125.19,207.33,129.3,202.25,129.3z"/>
		
			<linearGradient id="SVGID_00000067214766389717952040000018434786432393925054_" gradientUnits="userSpaceOnUse" x1="22.5" y1="92.6849" x2="185.0869" y2="92.6849">
			<stop  offset="0" style="stop-color:#45B65B"/>
			<stop  offset="4.599750e-03" style="stop-color:#45B65B"/>
			<stop  offset="0.6307" style="stop-color:#54BA6F"/>
			<stop  offset="1" style="stop-color:#5EBD7D"/>
		</linearGradient>
		<path style="fill:url(#SVGID_00000067214766389717952040000018434786432393925054_);" d="M106.52,126.86
			c3.46-15.26,12.34-26.92,24.84-35.88c14.97-10.74,31.95-14.92,50.2-14.53c1.16,0.02,2.31,0,3.48,0c0.01-0.25,0.07-0.43,0.03-0.59
			c-0.39-1.53-0.72-3.07-1.2-4.57c-6.26-19.78-19.41-33.77-37.54-42.97c-22.23-11.27-45.61-12.84-69.42-5.74
			c-18.74,5.58-34.12,16.13-44.75,32.82c-8.03,12.61-11.22,26.44-8.94,41.33c2.21,14.43,9.02,26.52,19.45,36.57
			c3.72,3.59,7.85,6.76,11.9,10.21c-2.52,7.54-5.13,15.32-7.88,23.55c1.26-0.65,1.99-1.01,2.7-1.39
			c7.62-4.06,15.25-8.09,22.84-12.21c1.33-0.72,2.46-0.86,3.92-0.4c9.03,2.8,18.31,4.12,27.75,4.32c1.37,0.03,2.74,0,4.33,0
			c-0.3-1.06-0.5-1.78-0.71-2.49C104.79,145.64,104.39,136.27,106.52,126.86z M132.45,51.97c6.37,0,11.54,5.17,11.54,11.54
			c0,6.37-5.17,11.54-11.54,11.54c-6.37,0-11.54-5.17-11.54-11.54C120.91,57.13,126.08,51.97,132.45,51.97z M76.25,75.04
			c-6.37,0-11.54-5.17-11.54-11.54c0-6.37,5.17-11.54,11.54-11.54c6.37,0,11.54,5.17,11.54,11.54
			C87.79,69.88,82.62,75.04,76.25,75.04z"/>
	</g>
	<g>
		<path d="M310.13,188.05h57.91v17.65h-57.91c-30.88,0-46.32-11.77-46.32-35.3v-17.65c0-23.53,15.44-35.3,46.32-35.3h23.16
			c30.88,0,46.32,11.77,46.32,35.3v17.65h-92.65C286.97,182.17,294.69,188.05,310.13,188.05z M286.97,152.75h69.49
			c0-11.77-7.72-17.65-23.16-17.65h-23.16C294.69,135.1,286.97,140.98,286.97,152.75z"/>
		<path d="M421.37,161.57l-43.66-44.13h29.07l29.07,29.39l29.07-29.39h29.07l-43.54,44.13l43.54,44.13h-29.07l-29.07-29.39
			l-29.07,29.39h-29.07L421.37,161.57z"/>
		<path d="M546.05,205.7c-30.88,0-46.32-11.77-46.32-35.3V82.14h23.16v38.3c6.41-2,14.13-3,23.16-3h23.16
			c30.88,0,46.32,11.77,46.32,35.3v17.65c0,23.54-15.44,35.3-46.32,35.3H546.05z M522.89,170.4c0,11.77,7.72,17.65,23.16,17.65
			h23.16c15.44,0,23.16-5.88,23.16-17.65v-17.65c0-11.77-7.72-17.65-23.16-17.65h-23.16c-15.44,0-23.16,5.88-23.16,17.65V170.4z"/>
		<path d="M631.58,152.75c0-23.53,15.44-35.3,46.32-35.3h23.16c30.88,0,46.32,11.77,46.32,35.3v17.65c0,23.54-15.44,35.3-46.32,35.3
			H677.9c-30.88,0-46.32-11.77-46.32-35.3V152.75z M677.9,135.1c-15.44,0-23.16,5.88-23.16,17.65v17.65
			c0,11.77,7.72,17.65,23.16,17.65h23.16c15.44,0,23.16-5.88,23.16-17.65v-17.65c0-11.77-7.72-17.65-23.16-17.65H677.9z"/>
		<path d="M810.92,188.05h11.58v17.65h-11.58c-30.88,0-46.32-11.77-46.32-35.3V82.14h23.16v35.3h34.74v17.65h-34.74v35.3
			C787.76,182.17,795.48,188.05,810.92,188.05z"/>
	</g>
</g>
</svg>
